<?xml version="1.0" encoding="UTF-8" standalone="no"?><!DOCTYPE svg PUBLIC "-//W3C//DTD SVG 1.1//EN" "http://www.w3.org/Graphics/SVG/1.1/DTD/svg11.dtd"><svg width="100%" height="100%" viewBox="0 0 32 32" version="1.1" xmlns="http://www.w3.org/2000/svg" xmlns:xlink="http://www.w3.org/1999/xlink" xml:space="preserve" xmlns:serif="http://www.serif.com/" style="fill-rule:evenodd;clip-rule:evenodd;stroke-linejoin:round;stroke-miterlimit:2;"><g id="Livello1"><path d="M25.722,0c3.467,0 6.278,2.811 6.278,6.278l0,19.444c-0,3.467 -2.811,6.278 -6.278,6.278l-19.444,0c-3.467,-0 -6.278,-2.811 -6.278,-6.278l-0,-19.444c0,-3.467 2.811,-6.278 6.278,-6.278l19.444,-0Z" style="fill:#2a2a2a;"/><path d="M16,1.839c7.821,-0 14.161,6.34 14.161,14.161c0,7.821 -6.34,14.161 -14.161,14.161c-7.821,0 -14.161,-6.34 -14.161,-14.161c-0,-7.821 6.34,-14.161 14.161,-14.161Zm0,6.385c-4.295,0 -7.776,3.481 -7.776,7.776c0,4.295 3.481,7.776 7.776,7.776c4.295,-0 7.776,-3.481 7.776,-7.776c-0,-4.295 -3.481,-7.776 -7.776,-7.776Z" style="fill:#8900ff;"/></g></svg>